,
  Hottest scene tracker on the net !!!   http://www.scenetime.com
 
         Please seed back after your download is completed

           Credit goes  to all seeders and  http://www.scenetime.com
 



...................................NFO:.................................................*******************************************************************************
                Great.Balls.of.Fire!.1989.DVDRip.AC3.X264-BARC0DE
*******************************************************************************

-------------------------------------------------------------------------------
                              General Information
-------------------------------------------------------------------------------
Type.................: Movie
Name.................: Great Balls of Fire! 
Movie Information....: http://www.imdb.com/title/tt0097457/
Genre................: Biography | Drama | Music
-------------------------------------------------------------------------------
                                    PLOT
-------------------------------------------------------------------------------
The story of Jerry Lee Lewis, arguably the greatest and certainly one of the 
wildest musicians of the 1950s. His arrogance, remarkable talent, and unconventional 
lifestyle often brought him into conflict with others in the industry, and even 
earned him the scorn and condemnation of the public.

-------------------------------------------------------------------------------
                                    CAST
-------------------------------------------------------------------------------
Dennis Quaid 	... 	Jerry Lee Lewis 
Winona Ryder 	... 	Myra Gale Brown 
John Doe 	... 	J.W. Brown 
Stephen Tobolowsky 	... 	Jud Phillips 
Trey Wilson 	... 	Sam Phillips 
Alec Baldwin 	... 	Jimmy Swaggart 
Steve Allen 	... 	Himself 
Lisa Blount 	... 	Lois Brown 
Joshua Sheffield 	... 	Rusty Brown 
Mojo Nixon 	... 	James Van Eaton 
Jimmie Vaughan 	... 	Roland Janes 
David Ferguson 	... 	Jack Clement 
Robert Lesser 	... 	Alan Freed 
Lisa Jane Persky 	... 	Babe

-------------------------------------------------------------------------------
                                    MEDiA iNFO
-------------------------------------------------------------------------------

General
Complete name                    : Great.Balls.of.Fire!.1989.DVDRip.AC3.X264-BARC0DE.mkv
Format                           : Matroska
File size                        : 1.46 GiB
Duration                         : 1h 42mn
Overall bit rate                 : 2 025 Kbps


Video
ID                               : 1
Format                           : AVC
Format/Info                      : Advanced Video Codec
Format profile                   : Main@L3.0
Format settings, CABAC           : No
Format settings, ReFrames        : 2 frames
Muxing mode                      : Container profile=Unknown@3.0
Codec ID                         : V_MPEG4/ISO/AVC
Duration                         : 1h 42mn
Bit rate                         : 1 836 Kbps
Width                            : 720 pixels
Height                           : 384 pixels
Display aspect ratio             : 1.875
Frame rate                       : 25.000 fps
Color space                      : YUV
Chroma subsampling               : 4:2:0
Bit depth                        : 8 bits
Scan type                        : Progressive
Bits/(Pixel*Frame)               : 0.266
Stream size                      : 1.29 GiB (89%)
Writing library                  : x264 core 79


Audio
ID                               : 2
Format                           : AC-3
Format/Info                      : Audio Coding 3
Mode extension                   : CM (complete main)
Codec ID                         : A_AC3
Duration                         : 1h 42mn
Bit rate mode                    : Constant
Bit rate                         : 192 Kbps
Channel(s)                       : 2 channels
Channel positions                : Front: L R
Sampling rate                    : 48.0 KHz
Stream size                      : 141 MiB (9%)
Language                         : English

Text
ID                               : 3
Format                           : VobSub
Codec ID                         : S_VOBSUB
Codec ID/Info                    : The same subtitle format used on DVDs
Language                         : English